<?xml version="1.0" encoding="UTF-8" standalone="no"?>

<svg
   xmlns:dc="http://purl.org/dc/elements/1.1/"
   xmlns:cc="http://creativecommons.org/ns#"
   xmlns:rdf="http://www.w3.org/1999/02/22-rdf-syntax-ns#"
   xmlns:svg="http://www.w3.org/2000/svg"
   xmlns="http://www.w3.org/2000/svg"
   version="1.1"
   id="svg869"
   width="1875.5045"
   height="1239.7699"
   viewBox="0 0 1875.5045 1239.7699">
  <path
     d="m 93.499602,1238.7764 c -45.75005,-6.6648 -82.77961,-41.9122 -91.5947103,-87.1865 -1.83499996,-9.4242 -1.90519996015,-17.1949 -1.90209996,-210.49999 0,-220.82761 -0.3279,-208.5441 6.12359996,-226.99621 13.0830003,-37.4187 47.5730003,-65.67396 86.8732103,-71.16906 6.40052,-0.8949 58.516908,-1.1095 210.999998,-0.8688 l 202.5,0.3196 9.70581,2.6812 c 28.52721,7.8805 52.34553,26.21206 67.17211,51.69856 4.98788,8.574 8.19954,16.6316 11.40769,28.6202 l 2.67599,10.00001 0.31354,198.5 c 0.20527,129.95769 -0.038,201.79669 -0.70449,208.04729 -3.92885,36.8461 -26.6224,69.6076 -59.79945,86.3295 -7.03472,3.5456 -14.07822,6.1052 -24.2712,8.8199 l -8.5,2.2639 -202.5,0.1572 c -111.375,0.087 -205.199998,-0.2361 -208.499998,-0.7168 z m 407.919358,-43.4016 c 3.80565,-0.8062 11.1908,-3.5437 16.41144,-6.0834 16.78265,-8.1643 29.78929,-24.018 34.91085,-42.5527 1.65066,-5.9736 1.75835,-18.5818 1.75835,-205.86329 0,-223.32751 0.6295,-204.1198 -7.21016,-220.00001 -2.78256,-5.6364 -5.82551,-9.6244 -12.24621,-16.0494 -9.78549,-9.7922 -18.40013,-14.8448 -30.65311,-17.9786 -7.54609,-1.93 -11.91802,-1.972 -205.10308,-1.972 -221.007908,0 -204.095158,-0.5644 -220.264298,7.3505 -11.89458,5.8225 -22.90631,16.7927 -28.77079,28.6624 -7.77456,15.73561 -7.25236,-0.1328 -7.25236,220.39251 0,191.61079 0.055,197.49129 1.9298,204.82029 6.62047,25.8856 27.67007,45.337 53.82742,49.7406 2.608528,0.4392 92.717788,0.8436 200.242788,0.8987 168.20888,0.086 196.46592,-0.1044 202.41936,-1.3656 z M 262.4996,1056.6538 c -3.45141,-0.8757 -10.9019,-7.8904 -54.32461,-51.1467 -29.18987,-29.07799 -51.2207,-51.81159 -52.45833,-54.13169 -3.14389,-5.8937 -2.91132,-14.8073 0.53767,-20.6066 2.71361,-4.5629 97.76519,-99.9042 103.5021,-103.8177 4.53468,-3.0933 12.94261,-3.8441 18.64802,-1.6652 11.44482,4.3708 16.88614,17.9062 11.69418,29.0895 -1.20206,2.5892 -12.56895,14.7574 -32.22804,34.5 l -30.37099,30.5 101,0.5 101,0.5 3.51706,2.1876 c 1.93438,1.2032 4.5004,3.2343 5.70227,4.5136 7.43988,7.9194 6.79294,22.3664 -1.34323,29.9958 -6.50225,6.0972 -0.93364,5.803 -109.84398,5.803 -54.74267,0 -99.53212,0.3215 -99.53212,0.7144 0,0.3929 13.67826,14.4554 30.39614,31.25 l 30.39614,30.53559 1.17478,5.7501 c 2.36782,11.5896 -3.5702,22.0697 -14.31207,25.2597 -5.6518,1.6784 -7.45354,1.7152 -13.15499,0.2686 z M 179.38772,766.89531 c -6.62348,-2.6762 -8.52137,-12.0405 -3.46504,-17.0968 l 2.92307,-2.9231 h 119.02987 c 86.88035,0 119.70481,0.3075 121.52874,1.1386 2.59253,1.1812 5.59801,6.2943 5.5915,9.5125 -0.006,2.943 -3.76268,8.3096 -6.56182,9.3738 -3.21432,1.2221 -236.02138,1.2172 -239.04632,0 z m 554.49384,471.91059 c -17.29275,-2.5413 -31.18096,-7.8366 -45.88196,-17.4938 -24.78556,-16.2818 -40.5671,-39.7829 -46.62837,-69.4367 l -2.35062,-11.5 -0.0105,-199.63949 c -0.0113,-215.51631 -0.23167,-205.8942 5.10161,-222.78821 11.27196,-35.7059 39.58513,-62.69716 76.38789,-72.82136 l 10,-2.7509 h 207.49997 207.50002 l 10,2.7539 c 42.1014,11.59436 73.1253,45.80396 80.0282,88.24607 2.2203,13.6516 2.2021,402.05049 -0.019,414.78989 -8.2579,47.3543 -44.4913,83.1792 -91.2572,90.2284 -8.3486,1.2585 -38.1637,1.4532 -207.25152,1.3539 -108.625,-0.064 -200.02809,-0.4876 -203.11801,-0.9417 z m 413.35924,-45.0715 c 20.9482,-7.1467 36.7062,-23.0713 43.8949,-44.359 l 2.3639,-7 V 940.87541 c 0,-194.4019 -0.066,-201.7114 -1.8796,-207.5 -7.5283,-24.03211 -24.6133,-40.48791 -48.3348,-46.55481 -7.4081,-1.8947 -12.7363,-1.9452 -205.28562,-1.9452 -192.54932,0 -197.87745,0.051 -205.28559,1.9452 -23.6274,6.0428 -40.84119,22.6225 -48.33551,46.55481 -1.81237,5.7876 -1.87888,13.1147 -1.87888,207 v 200.99999 l 2.34088,7.5 c 3.32863,10.6647 7.58297,18.1352 14.70278,25.8178 10.27817,11.0905 21.47355,17.5588 35.82166,20.6964 5.03202,1.1004 41.90326,1.3095 205.13466,1.1637 l 199.00002,-0.1779 z m -217.74122,-109.772 c -2.705,-1.264 -20.5454,-18.4966 -55.1056,-53.2281 -47.2737,-47.50799 -51.2011,-51.71469 -52.3786,-56.10399 -4.4041,-16.4168 10.47,-31.1649 26.9946,-26.7658 3.9953,1.0636 7.9067,4.5983 35.5247,32.103 17.0693,16.9994 31.3567,30.90789 31.75,30.90789 0.3932,0 0.7149,-43.36359 0.7149,-96.36349 0,-60.9185 0.3728,-98.3293 1.0135,-101.7079 1.1711,-6.1749 3.9528,-10.6816 8.5283,-13.8168 10.7606,-7.3733 25.3607,-3.694 31.2082,7.8645 l 2.25,4.4475 v 99.7881 c 0,71.6025 0.3091,99.78809 1.0945,99.78809 0.602,0 14.162,-13.09889 30.1334,-29.10859 19.77562,-19.8231 30.35202,-29.7049 33.15552,-30.978 7.8611,-3.5699 18.9226,-1.6517 24.3178,4.2171 1.2106,1.3169 3.177,4.6005 4.3697,7.2969 2.6827,6.0646 2.1598,12.8229 -1.464,18.9251 -3.7718,6.3511 -99.30202,101.21249 -103.82482,103.09779 -5.0333,2.098 -13.3692,1.9324 -18.2821,-0.3633 z m 443.36252,154.8505 c -29.4471,-4.3746 -55.0837,-19.4934 -72.6818,-42.8632 -9.7363,-12.9295 -15.5385,-25.7836 -19.8945,-44.0743 -1.6846,-7.0733 -1.7862,-19.107 -1.7862,-211.49999 v -204 l 2.3627,-9.50001 c 11.0458,-44.4143 44.22,-75.89996 88.0183,-83.53836 12.7226,-2.2188 404.4716,-2.1887 417.0907,0.032 38.7573,6.8207 71.3741,34.52076 84.1987,71.50636 5.6999,16.43841 5.3296,0.7033 5.3296,226.50001 v 206.99999 l -2.6812,9.7058 c -7.3649,26.6607 -24.0961,49.7068 -46.6198,64.2158 -11.4847,7.398 -18.6693,10.4734 -34.699,14.8531 l -8,2.1859 -202.5,0.1572 c -111.375,0.087 -205.0369,-0.2196 -208.1375,-0.6803 z m 413.6586,-45.1587 c 20.409,-6.9239 36.0911,-22.3171 43.1913,-42.3958 l 2.7876,-7.883 0.2621,-199.98349 c 0.2588,-197.434 0.2365,-200.0858 -1.7477,-208 -4.9616,-19.78961 -17.2,-34.93141 -35.3908,-43.78711 -14.7928,-7.2014 0.4976,-6.7313 -218.321,-6.712 -219.3417,0.019 -203.8054,-0.4847 -219.3026,7.1149 -11.5746,5.676 -24.0234,17.9281 -29.3311,28.8677 -7.7993,16.07511 -7.1192,-3.5019 -7.4516,214.50001 -0.2082,136.58609 0.029,197.50019 0.7928,203.34629 3.1643,24.2289 18.0616,43.3361 41.3454,53.0292 4.1208,1.7155 9.8891,3.5215 12.8185,4.0134 3.0267,0.5082 91.02,0.8331 203.826,0.7527 l 198.5,-0.1416 z m -187.7926,-137.1057 c -11.8815,-3.6957 -18.1273,-17.471 -13.2274,-29.1731 1.1787,-2.8149 10.6852,-13.0427 32.0869,-34.52109 16.7266,-16.7867 30.4121,-30.7367 30.4122,-31 10e-5,-0.2634 -43.2528,-0.3534 -96.1174,-0.1999 -62.8866,0.1825 -98.065,-0.077 -101.7502,-0.7516 -11.0163,-2.0157 -17.2955,-9.2184 -17.8774,-20.5071 -0.5992,-11.6221 6.4409,-19.6714 18.902,-21.6114 4.2926,-0.6683 39.9315,-0.9201 101.7254,-0.7188 52.3148,0.1704 95.1178,0.082 95.1176,-0.1967 -10e-5,-0.2786 -12.8545,-13.3286 -28.5653,-29 -15.7108,-15.6714 -29.7716,-30.5184 -31.2464,-32.9934 -5.5487,-9.3123 -2.4299,-22.503 6.7582,-28.5834 5.114,-3.3843 13.4967,-4.2828 19.2956,-2.0682 3.4026,1.2995 14.5443,11.933 55.4168,52.8891 l 51.1579,51.2625 1.2123,5.5786 c 1.0199,4.6935 0.9609,6.4388 -0.3718,11 -1.5264,5.2243 -3.4846,7.3158 -53.8708,57.53869 -48.9856,48.827 -52.583,52.1888 -56.9795,53.25 -5.6319,1.3594 -7.1635,1.3347 -12.0787,-0.1942 z M 1485.9996,767.16921 c -3.0498,-1.1149 -5.988,-4.7128 -6.626,-8.1136 -0.8029,-4.2801 1.9177,-9.9604 5.4059,-11.2866 1.3321,-0.5065 53.465,-0.8936 120.3349,-0.8936 128.2169,0 122.0745,-0.2696 124.6905,5.4721 2.1558,4.7313 1.4811,8.4415 -2.2053,12.1279 l -3.4,3.4 -118.35,-0.079 c -65.0925,-0.043 -119.025,-0.3257 -119.85,-0.6273 z M 728.15988,596.31894 c -21.92662,-4.00353 -41.49659,-14.49314 -57.70139,-30.92828 -15.98087,-16.20802 -25.94532,-35.66851 -29.96183,-58.51521 -1.29227,-7.35069 -1.49451,-35.42355 -1.49569,-207.61901 -0.001,-175.25062 0.18418,-200.183054 1.54658,-207.995624 7.11269,-40.78716 34.55617,-72.74858 73.71065,-85.8454303 17.28601,-5.78201997 9.57499,-5.60389997 228.97408,-5.28904997 l 201.26732,0.28884 8.1302,2.18638997 c 24.1456,6.4933 42.0957,17.4167003 57.4461,34.9584203 11.3572,12.97857 18.7471,27.00175 23.7153,45.00228 l 2.7084,9.81318 0.2944,202.500004 c 0.2699,185.60628 0.1549,203.29254 -1.3773,212 -8.1574,46.35549 -42.8716,81.48614 -88.4454,89.50639 -7.334,1.2907 -35.5316,1.4765 -209.97172,1.384 -163.7524,-0.087 -202.87495,-0.3578 -208.8397,-1.4469 z M 1146.1471,552.689 c 19.8261,-7.06533 32.4754,-17.97371 40.9491,-35.31355 7.4243,-15.19235 6.9625,0.13151 6.6679,-221.25558 l -0.2645,-198.744424 -2.3384,-7 c -7.3406,-21.97364 -22.1193,-36.60555 -45.1616,-44.71297 l -6.5,-2.28703 H 938.49958 737.4996 l -7.04153,2.23026 c -18.83636,5.96603 -33.10576,17.90839 -41.39731,34.64627 -7.51881,15.178 -7.06318,0.98212 -7.0438,219.461444 0.0193,217.3711 -0.44595,202.577 6.84497,217.66203 4.89389,10.12552 10.675,17.32568 18.92646,23.57219 8.00809,6.06228 15.56896,9.74593 24.71121,12.03927 6.57346,1.64896 19.24791,1.74384 207.99998,1.55713 184.24262,-0.18225 201.38752,-0.33691 205.64752,-1.85504 z M 819.38768,508.89538 c -1.1615,-0.46931 -3.1179,-2.12829 -4.3475,-3.68661 -3.0812,-3.90501 -2.3883,-10.77734 1.4168,-14.05032 l 2.6542,-2.283 h 119.8406 119.84062 l 3.1036,3.5348 c 3.4352,3.91251 3.8721,7.07837 1.5867,11.49793 -3.271,6.32528 4.1581,5.97351 -124.68342,5.90388 -64.5148,-0.0349 -118.25,-0.44737 -119.4116,-0.91668 z m 111.0721,-65.02612 c -4.9433,-1.53198 -11.1139,-7.52533 -13.1315,-12.7544 -1.7272,-4.47647 -1.8287,-10.21803 -1.8287,-103.4895 0,-65.17608 -0.34,-98.74532 -1,-98.73607 -0.55,0.008 -14.05,13.12507 -30,29.14967 -19.1973,19.28712 -30.3521,29.75371 -33,30.96411 -18.3835,8.40336 -36.9974,-11.29205 -27.8636,-29.48259 2.476,-4.93107 99.1192,-101.333 103.9293,-103.66984 5.2261,-2.5389 13.5753,-2.56631 18.9343,-0.0622 2.705,1.26399 20.5454,18.49654 55.10562,53.22804 47.2737,47.50804 51.2011,51.71472 52.3786,56.10404 4.4247,16.49335 -10.401,31.18306 -27.0096,26.76178 -3.9759,-1.0584 -7.9338,-4.6362 -35.50972,-32.09903 -17.0692,-16.99928 -31.3462,-30.90782 -31.7266,-30.90782 -0.3804,0 -0.8146,44.8875 -0.965,99.75 -0.2592,94.61352 -0.3682,99.9409 -2.117,103.45733 -2.1892,4.40203 -6.0177,8.4111 -9.998,10.46939 -3.6068,1.86515 -12.1801,2.56226 -16.1981,1.31709 z"
   />
</svg>
